<svg xmlns="http://www.w3.org/2000/svg" version="1.1" xmlns:xlink="http://www.w3.org/1999/xlink" viewBox="0 0 200 200"><rect width="200" height="200" fill="url('#gradient')"></rect><defs><linearGradient id="gradient" gradientTransform="rotate(45 0.5 0.5)"><stop offset="0%" stop-color="#3c4845"></stop><stop offset="100%" stop-color="#1b7974"></stop></linearGradient></defs><g><g fill="#3df383" transform="matrix(2.8213684371651615,0,0,2.8213684371651615,6.975846939442377,119.77951104290979)" stroke="#60643d" stroke-width="0.2"><path d="M1.07-14.22L5.58-14.22L8.75-4.33L11.91-14.22L16.43-14.22L16.43 0L12.99 0L12.99-3.32L13.32-10.12L9.88 0L7.62 0L4.17-10.13L4.50-3.32L4.50 0L1.07 0L1.07-14.22ZM23.56 0.20L23.56 0.20Q21.13 0.20 19.63-1.25Q18.13-2.71 18.13-5.03L18.13-5.03L18.13-5.30Q18.13-6.92 18.73-8.16Q19.33-9.40 20.48-10.08Q21.63-10.76 23.21-10.76L23.21-10.76Q25.44-10.76 26.73-9.38Q28.02-8.00 28.02-5.53L28.02-5.53L28.02-4.25L21.47-4.25Q21.65-3.36 22.25-2.85Q22.84-2.34 23.79-2.34L23.79-2.34Q25.35-2.34 26.23-3.44L26.23-3.44L27.73-1.66Q27.12-0.81 25.99-0.31Q24.86 0.20 23.56 0.20ZM23.19-8.22L23.19-8.22Q21.75-8.22 21.47-6.31L21.47-6.31L24.79-6.31L24.79-6.56Q24.81-7.35 24.39-7.79Q23.97-8.22 23.19-8.22ZM29.28-10.57L32.36-10.57L32.47-9.33Q33.56-10.76 35.49-10.76L35.49-10.76Q37.14-10.76 37.95-9.78Q38.77-8.79 38.80-6.81L38.80-6.81L38.80 0L35.50 0L35.50-6.67Q35.50-7.47 35.18-7.85Q34.85-8.22 34.00-8.22L34.00-8.22Q33.04-8.22 32.57-7.46L32.57-7.46L32.57 0L29.28 0L29.28-10.57ZM41.16-13.19L44.45-13.19L44.45-10.57L46.19-10.57L46.19-8.28L44.45-8.28L44.45-3.45Q44.45-2.85 44.67-2.62Q44.88-2.38 45.52-2.38L45.52-2.38Q46.01-2.38 46.34-2.44L46.34-2.44L46.34-0.09Q45.45 0.20 44.48 0.20L44.48 0.20Q42.78 0.20 41.97-0.61Q41.16-1.41 41.16-3.04L41.16-3.04L41.16-8.28L39.81-8.28L39.81-10.57L41.16-10.57L41.16-13.19ZM46.79-4.82L46.78-5.38Q46.78-6.96 47.39-8.20Q48.01-9.43 49.16-10.10Q50.31-10.76 51.87-10.76L51.87-10.76Q54.24-10.76 55.61-9.29Q56.97-7.82 56.97-5.29L56.97-5.29L56.97-5.18Q56.97-2.71 55.60-1.25Q54.23 0.20 51.88 0.20L51.88 0.20Q49.63 0.20 48.26-1.16Q46.89-2.51 46.79-4.82L46.79-4.82ZM50.08-5.77L50.07-5.18Q50.07-3.71 50.53-3.03Q50.99-2.34 51.88-2.34L51.88-2.34Q53.64-2.34 53.68-5.05L53.68-5.05L53.68-5.38Q53.68-8.22 51.87-8.22L51.87-8.22Q50.21-8.22 50.08-5.77L50.08-5.77ZM64.87-10.64L64.81-7.59L63.73-7.67Q62.18-7.67 61.74-6.69L61.74-6.69L61.74 0L58.45 0L58.45-10.57L61.53-10.57L61.64-9.21Q62.47-10.76 63.96-10.76L63.96-10.76Q64.48-10.76 64.87-10.64L64.87-10.64Z"></path></g></g></svg>